<?xml version="1.0" encoding="UTF-8"?>
<svg id="Capa_1" xmlns="http://www.w3.org/2000/svg" version="1.1" viewBox="0 0 800 800">
  <!-- Generator: Adobe Illustrator 29.1.0, SVG Export Plug-In . SVG Version: 2.1.0 Build 142)  -->
  <defs>
    <style>
      .st0 {
        fill: #e51910;
        fill-rule: evenodd;
      }
    </style>
  </defs>
  <path class="st0" d="M733.3,400c0,184.1-149.2,333.3-333.3,333.3S66.7,584.1,66.7,400,215.9,66.7,400,66.7s333.3,149.2,333.3,333.3ZM534.3,299c9.8,9.8,9.8,25.6,0,35.4l-166.7,166.7c-9.8,9.8-25.6,9.8-35.4,0l-66.7-66.7c-9.8-9.8-9.8-25.6,0-35.4,9.8-9.8,25.6-9.8,35.4,0l49,49,74.5-74.5,74.5-74.5c9.8-9.8,25.6-9.8,35.4,0Z"/>
</svg>