<?xml version="1.0" encoding="UTF-8"?>
<svg id="Icons" xmlns="http://www.w3.org/2000/svg" version="1.1" viewBox="0 0 32 32">
  <!-- Generator: Adobe Illustrator 29.1.0, SVG Export Plug-In . SVG Version: 2.1.0 Build 142)  -->
  <defs>
    <style>
      .st0 {
        fill: #e51910;
      }
    </style>
  </defs>
  <path class="st0" d="M3,26h0Z"/>
  <path class="st0" d="M29.1,16c-2.2,0-4.3,1-5.6,2.8l-.9,1.2h-3.6c.6-.8,1-1.9,1-3s-.4-1-1-1h-6.6c-3,0-5.9,1.6-7.6,4.3l-2.6,4.2c-.3.5-.2,1.1.3,1.4h.4c.4,0,.7-.2.9-.5l2.6-4.2c1.4-2,3.6-3.3,6-3.3h5.4c-.4,1.2-1.5,2-2.8,2h-2c-.6,0-1,.4-1,1s.4,1,1,1h10c.3,0,.6,0,.8-.4l1.2-1.6c.6-.7,1.3-1.3,2.1-1.6l-1.7,2.9c-1.2,2.3-1.2,3.7-6.2,3.7s-9.7,1.5-13.8,4.2c-.5.3-.6.9-.3,1.4.2.2.5.4.8.4h0c.2,0,.4,0,.6-.2,3.7-2.5,9.3-3.8,12.6-3.8s6.5-1.8,8-4.7l2.7-4.8c.2-.3.2-.7,0-1s-.7-.4-.7-.4Z"/>
  <path class="st0" d="M4,14c0,.6.4,1,1,1h22c.6,0,1-.4,1-1V2c0-.6-.4-1-1-1H5c-.6,0-1,.4-1,1v12ZM9.9,3h12.2c.4,2,1.9,3.5,3.9,3.9v2.2c-2,.4-3.5,1.9-3.9,3.9h-12.2c-.4-2-1.9-3.5-3.9-3.9v-2.2c2-.4,3.5-1.9,3.9-3.9ZM6,11.2c.9.3,1.5,1,1.8,1.8h-1.8v-1.8ZM24.2,13c.3-.9,1-1.5,1.8-1.8v1.8h-1.8ZM26,4.8c-.9-.3-1.5-1-1.8-1.8h1.8v1.8ZM7.8,3c-.3.9-1,1.5-1.8,1.8v-1.8s1.8,0,1.8,0Z"/>
  <path class="st0" d="M16,12c2.2,0,4-1.8,4-4s-1.8-4-4-4-4,1.8-4,4,1.8,4,4,4ZM16,6c1.1,0,2,.9,2,2s-.9,2-2,2-2-.9-2-2,.9-2,2-2Z"/>
</svg>