<?xml version="1.0" encoding="UTF-8"?>
<svg id="Capa_1" xmlns="http://www.w3.org/2000/svg" version="1.1" viewBox="0 0 281.5 296.3">
  <!-- Generator: Adobe Illustrator 29.1.0, SVG Export Plug-In . SVG Version: 2.1.0 Build 142)  -->
  <defs>
    <style>
      .st0 {
        fill: #fff;
      }

      .st1 {
        fill: #e51910;
      }
    </style>
  </defs>
  <path class="st0" d="M250.2,146c26.1,16.6,35.5,50.3,29.5,80-15.2,74.4-97.1,72.4-156.9,68.9C-25.3,286.3-43,49,89.1,6.5,113.3-1.3,165.5-.6,191.8,1.1c73.1,4.9,116,90.4,58.4,143.4v1.4h0ZM136.3,122.1h56.4c.8,0,7.5-2.5,8.9-3.1,26.8-12.6,22.1-52.4-5.1-61.6-11.3-3.8-49.4-3.2-62.8-2.3-95.7,6.5-97.2,163.1-14.7,182.6,16.2,3.8,56.5,3.9,73.5,2.2,36.2-3.6,45.1-49.7,13.6-65.3-1.5-.8-8.4-3.5-9.5-3.5h-60.4v-48.9h0Z"/>
  <path class="st1" d="M136.3,122.1v49h60.4c1.1,0,8,2.7,9.5,3.5,31.5,15.6,22.5,61.7-13.6,65.4-17.1,1.7-57.4,1.6-73.5-2.2-82.6-19.4-81-176,14.7-182.6,13.3-.9,51.4-1.6,62.8,2.3,27.2,9.2,31.9,49,5.1,61.6-1.3.6-8,3.1-8.9,3.1h-56.4Z"/>
</svg>