<?xml version="1.0" encoding="UTF-8"?>
<svg id="Capa_1" data-name="Capa 1" xmlns="http://www.w3.org/2000/svg" viewBox="0 0 203.73 29.02">
  <defs>
    <style>
      .cls-1 {
        fill: #fff;
      }
    </style>
  </defs>
  <g id="surface1">
    <path class="cls-1" d="M49.5,8.83c-5.57,0-10.09,4.51-10.09,10.08,0,5.58,4.51,10.1,10.08,10.1,5.57,0,10.09-4.52,10.09-10.09s-4.51-10.09-10.07-10.09ZM49.5,23.37c-2.45-.02-4.43-2.02-4.42-4.48.01-2.45,2.01-4.44,4.46-4.43,2.45,0,4.44,2,4.44,4.46,0,1.18-.47,2.32-1.32,3.16-.84.84-1.98,1.3-3.17,1.29Z"/>
    <path class="cls-1" d="M72.43,9.31h-2.75V3.36h-6.03v5.95h-2.75v5.46h2.75v13.75h6.03v-13.75h2.75v-5.46Z"/>
    <path class="cls-1" d="M75.18,9.31h6.02v19.21h-6.02V9.31Z"/>
    <path class="cls-1" d="M78.2,0c-1.36,0-2.59.81-3.11,2.07-.52,1.25-.24,2.7.72,3.67.96.96,2.41,1.25,3.66.73,1.26-.52,2.08-1.75,2.08-3.11C81.55,1.51,80.05,0,78.2,0Z"/>
    <path class="cls-1" d="M164.58,14.49c1.98,0,3.58,1.61,3.58,3.59v10.47h6.02v-11.21c0-5.1-2.95-8.42-7.6-8.42-1.91,0-3.93.84-5.59,3.53v-3.06h-6.03v19.16h5.98v-10.47c0-.96.39-1.88,1.07-2.55.68-.67,1.61-1.05,2.57-1.04Z"/>
    <path class="cls-1" d="M196.14,28.52l-7.39-9.6,6.88-9.61h-7.04l-5.53,7.78V.48h-6.02v28.04h6.02v-7.92l6.07,7.92h7.02Z"/>
    <path class="cls-1" d="M18.7,23.35c.46-1.12.68-2.33.65-3.54.04-1.78-.57-3.52-1.72-4.88-1.29-1.41-3.48-2.59-6.53-3.48-.59-.15-1.16-.36-1.72-.61-.48-.23-.91-.55-1.27-.95-.38-.43-.58-.99-.55-1.56.01-.84.48-1.6,1.22-1.99,1.52-.67,3.25-.67,4.77,0,.68.25,1.32.55,1.95.91l2.56-5.1c-1.14-.71-2.38-1.25-3.67-1.62C13.05.18,11.68,0,10.31,0c-1.31-.02-2.61.19-3.84.63-1.09.43-2.09,1.08-2.92,1.91-.84.84-1.5,1.83-1.95,2.93-.44,1.12-.66,2.33-.65,3.54.07,1.93.89,3.75,2.27,5.1,1.32,1.16,2.87,2.02,4.54,2.54.8.3,1.68.58,2.24.79.58.22,1.13.5,1.65.84.37.27.67.61.88,1.02.18.39.25.81.19,1.23-.06.64-.37,1.23-.86,1.65-.8.58-1.79.85-2.77.76-1.16-.03-2.31-.3-3.36-.8-.92-.44-1.82-.94-2.68-1.49l-3.05,5.25c2.41,1.98,5.42,3.08,8.54,3.11,1.54,0,3.08-.24,4.54-.72,1.26-.42,2.43-1.07,3.45-1.93.93-.84,1.67-1.86,2.18-3.01Z"/>
    <path class="cls-1" d="M200.39,21.81c-1.36,0-2.59.8-3.12,2.06s-.25,2.7.71,3.67,2.4,1.26,3.66.75c1.26-.52,2.08-1.74,2.09-3.11,0-1.85-1.49-3.36-3.34-3.37ZM200.39,27.85c-1.09,0-2.07-.65-2.49-1.65-.42-1.01-.19-2.16.57-2.94.77-.77,1.93-1,2.93-.59,1,.41,1.66,1.39,1.66,2.48,0,.71-.28,1.4-.78,1.9-.5.5-1.18.79-1.89.79Z"/>
    <path class="cls-1" d="M200.37,25.72h-.54v1.27h-.65v-3.67h1.39c.68,0,1.22.55,1.22,1.22-.01.46-.29.88-.7,1.07l.77,1.38h-.79l-.7-1.27ZM199.84,25.11h.77c.31,0,.56-.25.56-.56s-.25-.56-.56-.56h-.77v1.12Z"/>
    <path class="cls-1" d="M35.2,21.7c-1.54,1.91-4.33,2.22-6.24.69-1.91-1.54-2.23-4.33-.7-6.25,1.54-1.92,4.33-2.23,6.24-.7.25.2.49.43.7.68l3.98-4c-1.9-2.1-4.61-3.3-7.45-3.29-5.55-.02-10.34,3.95-10.34,10.06s4.84,10.09,10.39,10.09c2.84,0,5.55-1.2,7.46-3.3l-4.04-4Z"/>
    <path class="cls-1" d="M104.77,28.54V9.31h-5.87v2.04l-.55-.48c-1.37-1.31-3.2-2.05-5.09-2.04-5.19,0-9.57,4.62-9.57,10.08s4.39,10.09,9.57,10.09c1.89,0,3.72-.73,5.09-2.04l.55-.48v2.04l5.87.02ZM94.23,23.45c-2.51-.02-4.53-2.06-4.51-4.57.01-2.51,2.05-4.53,4.56-4.52,2.51.01,4.53,2.05,4.53,4.56,0,1.21-.49,2.37-1.35,3.22-.86.85-2.02,1.32-3.23,1.32Z"/>
    <path class="cls-1" d="M152.08,28.54V9.31h-5.87v2.04l-.55-.48c-1.37-1.31-3.2-2.04-5.09-2.04-5.18,0-9.56,4.62-9.56,10.08s4.39,10.09,9.56,10.09c1.9,0,3.72-.73,5.09-2.04l.55-.48v2.04l5.87.02ZM141.59,23.45c-2.51,0-4.55-2.03-4.55-4.54s2.03-4.55,4.54-4.55c2.51,0,4.54,2.04,4.54,4.55s-2.03,4.54-4.53,4.55Z"/>
    <path class="cls-1" d="M113.76,28.54v-2.04l.54.48c1.37,1.31,3.2,2.04,5.09,2.04,5.18,0,9.56-4.62,9.56-10.09s-4.38-10.08-9.56-10.08c-1.9,0-3.72.73-5.09,2.04l-.54.48V.48h-5.88v28.06h5.88ZM113.88,18.93c-.01-1.84,1.09-3.51,2.79-4.22,1.7-.71,3.65-.33,4.96.96,1.3,1.3,1.7,3.26,1,4.96-.7,1.7-2.36,2.81-4.2,2.81-2.5,0-4.54-2.03-4.54-4.54v.02Z"/>
  </g>
</svg>