<?xml version="1.0" encoding="UTF-8"?>
<svg id="Capa_1" data-name="Capa 1" xmlns="http://www.w3.org/2000/svg" viewBox="0 0 951.42 121.47">
  <defs>
    <style>
      .cls-1 {
        fill: #e51910;
      }
    </style>
  </defs>
  <path class="cls-1" d="M663.21,6.7c27.15,3.22,37.5,34.79,14.83,51.83-1.62,1.22-4.08.3-3.34,3.11,23.04,4.92,24.94,35.93,8.02,49.49-3.71,2.98-16.07,8.46-20.51,8.46h-54.45V6.7c17.5,1.51,38.35-2.03,55.45,0ZM629.74,53.65c.73.27,1.19-1,1.5-1h27.97c.29,0,4.42-2.45,5.01-2.98,4.61-4.18,5.22-12.77,1.94-17.96-.96-1.52-6.64-6.03-7.95-6.03h-28.47v27.97ZM629.74,101.6h23.48c.34,0,6.12-1.05,6.76-1.23,12.52-3.57,15.6-21.54,3.8-27.3-1.24-.61-6.63-2.43-7.56-2.43h-26.47v30.97Z"/>
  <path class="cls-1" d="M334.67,117.23h-20.98v-50.45c0-3.59-5.75-11.38-9.7-12.28-18.12-4.11-20.51,10.42-21.31,24.22-.61,10.59-.28,23.34-.02,34.07.04,1.7.33,2.94,1.06,4.44h-20.98v-52.45c0-.34-2.06-4.79-2.53-5.46-5.2-7.22-19.61-6.94-24.45.45-.68,1.04-2.99,7.24-2.99,8v49.45h-19.98V36.31h18.98v8.49s1.98.5,1.98.5c8.85-17.13,37.66-13.82,45.47,2.99,10.56-17.66,41.46-19.45,51.27-.3.68,1.33,3.18,7.91,3.18,8.81v58.94c0,.3,1.26.77,1,1.5Z"/>
  <path class="cls-1" d="M106.89,43.31h-21.98c-3.88-19.57-28.73-26.52-44.89-17.42-18.7,10.53-21.02,40.48-10.85,57.68,12.67,21.45,47.07,19.47,55.75-4.3h21.98c-11.05,52.41-88.35,52.12-103.62,2.21C-3.95,57.85.43,30.11,19.96,13.82,49.49-10.8,102.71,2.1,106.89,43.31Z"/>
  <path class="cls-1" d="M894.48,6.7v61.94l29.47-28.97h26.47l-32.83,32.3,33.83,47.63h-24.98l-23.51-33.97c-1.58-.39-8.46,7.89-8.46,8.49v25.48h-19.98V6.7h19.98Z"/>
  <path class="cls-1" d="M772.6,119.58h-18.98l1-7.98c-4.68,2-7.57,6.04-12.71,7.76-20.92,7-42.54-3.65-38.97-27.99,3.05-20.82,35.05-28.53,49.68-15.75,2.32-13.64-5.32-25.76-20.2-19.71-6.45,2.62-6.19,8.72-6.76,8.72h-19.98c-2.38-29.49,47.85-33.56,61.92-16.46,1.33,1.62,5.02,8.41,5.02,9.97v61.44ZM734.37,83.86c-18.27,3.12-12.45,28.09,9.05,20.03,16.13-6.05,10.19-23.31-9.05-20.03Z"/>
  <path class="cls-1" d="M455.33,34.59c54.93-6.54,64.47,72.6,15.27,83.2-59.07,12.73-70.88-76.58-15.27-83.2ZM458.31,52.56c-24.32,3.15-22.76,48.69,2.74,48.69,27.74,0,27.13-52.56-2.74-48.69Z"/>
  <path class="cls-1" d="M859.51,119.58h-19.98v-48.45c0-.36-1.87-6.1-2.22-6.77-5.3-10.37-22.02-9.94-27.62-.09-.39.69-2.13,5.5-2.13,5.86v49.45h-19.98V39.66h18.98l.51,9,9.16-7.82c10.86-5.81,29.62-3.65,37.28,6.32,1.3,1.69,6,11.53,6,12.98v59.44Z"/>
  <path class="cls-1" d="M586.42,117.23h-19.98v-50.45c0-.38-2.45-6.19-2.99-7-5.16-7.91-20.53-7.68-25.82.17-5.85,8.68-4.51,41.19-4.22,52.84.04,1.7.33,2.94,1.06,4.44h-19.98V36.31h18.98l.51,9,6.16-5.82c11.44-8.6,32.45-5.84,40.72,5.88,1.81,2.56,5.56,11.62,5.56,14.42v57.44Z"/>
  <path class="cls-1" d="M409.6,58.29h-19.48c-.39,0-3.06-4.57-5.14-5.85-11.98-7.36-26.13,5.56-13.35,11.35,13.64,6.18,37.45,3.22,39.86,25.07,4.32,39.3-66.99,40.71-66.82,2.39h19.98c-.52,11.74,20.32,14.85,25.03,6.55,8.6-15.15-19.99-15.33-28.56-18.5-11.87-4.39-16.09-12.95-14.36-25.42,3.72-26.86,63.57-27.35,62.85,4.41Z"/>
  <path class="cls-1" d="M166.83,35.31v19.98c-9.56-1.89-20.13-1.1-24.76,8.71-1.59,3.37-4.22,13.3-4.22,16.76v34.97c0,.3,1.26.77,1,1.5h-20.98V36.31h19.98l.49,11.98c5.56-12.09,15.88-15.16,28.48-12.98Z"/>
  <polygon class="cls-1" points="197.8 117.23 176.82 117.23 176.82 35.31 196.3 35.31 197.8 117.23"/>
  <path class="cls-1" d="M195.47,21.99c-10.56,11.05-29.51-5.29-18.2-17.7,11.69-12.82,29.34,6.04,18.2,17.7Z"/>
</svg>