<?xml version="1.0" encoding="UTF-8"?>
<svg id="Capa_1" xmlns="http://www.w3.org/2000/svg" version="1.1" viewBox="0 0 800 800">
  <!-- Generator: Adobe Illustrator 29.1.0, SVG Export Plug-In . SVG Version: 2.1.0 Build 142)  -->
  <defs>
    <style>
      .st0 {
        fill: #e51910;
      }
    </style>
  </defs>
  <path class="st0" d="M422.4,547.5v35.5c0,2.8-.6,5.6-1.6,8.2-1.1,2.6-2.7,5-4.6,7-2,2-4.4,3.6-7,4.6-2.6,1.1-5.4,1.6-8.2,1.6s-5.6-.6-8.2-1.6c-2.6-1.1-5-2.6-7-4.6-2-2-3.6-4.4-4.6-7-1.1-2.6-1.6-5.4-1.6-8.2v-36.5c-14.2-2.3-27.8-7.5-40-15.1-12.2-7.6-22.8-17.6-31.1-29.4-3-3.8-4.7-8.6-4.8-13.4,0-2.7.6-5.5,1.7-8,1.1-2.5,2.7-4.8,4.7-6.7,2-1.9,4.4-3.3,6.9-4.3,2.6-1,5.3-1.4,8.1-1.3,2.7,0,5.4.6,7.9,1.7,2.5,1.1,4.7,2.7,6.5,4.7,10.3,13.4,24.2,23.6,40,29.4v-81.6c-42.6-16.6-64-41.6-64-73.9.6-17.3,7.4-33.8,19.2-46.5,11.7-12.7,27.6-20.9,44.8-22.9v-35.2c0-2.8.6-5.6,1.6-8.2,1.1-2.6,2.7-5,4.6-7,2-2,4.4-3.6,7-4.6s5.4-1.6,8.2-1.6,5.6.6,8.2,1.6c2.6,1.1,5,2.7,7,4.6,2,2,3.6,4.4,4.6,7,1.1,2.6,1.6,5.4,1.6,8.2v34.9c11.9,1.9,23.3,6.1,33.5,12.5,10.2,6.4,19.1,14.8,26,24.6,3,3.6,4.8,8.1,5.1,12.8,0,2.8-.4,5.5-1.4,8.1-1,2.6-2.5,4.9-4.4,6.9-1.9,2-4.2,3.6-6.7,4.7-2.5,1.1-5.3,1.7-8,1.7-2.9,0-5.7-.8-8.3-2-2.6-1.3-4.9-3.1-6.7-5.3-7.6-9.5-17.7-16.8-29.1-21.1v72l8,3.2c40.6,16,65.9,39,65.9,75.5-.5,19.5-8.4,38.2-22.1,52.1-13.7,13.9-32.3,22.1-51.8,22.8ZM379.5,375.4v-52.2c-5.2,1.9-9.6,5.3-12.7,9.9-3.1,4.5-4.7,9.9-4.6,15.4,0,5.7,1.5,11.3,4.6,16.1,3.1,4.8,7.5,8.5,12.7,10.8ZM449.6,473.6c0-15.4-10.6-24.6-27.2-32v64c7.6-1.2,14.6-5,19.6-10.9,5-5.9,7.7-13.4,7.6-21.1Z"/>
  <path class="st0" d="M592,727H208c-40.6,0-78.8-15.8-107.5-44.5-28.7-28.7-44.5-66.9-44.5-107.5V255c0-40.6,15.8-78.8,44.5-107.5,28.7-28.7,66.9-44.5,107.5-44.5h384c40.6,0,78.8,15.8,107.5,44.5,28.7,28.7,44.5,66.9,44.5,107.5v320c0,40.6-15.8,78.8-44.5,107.5-28.7,28.7-66.9,44.5-107.5,44.5ZM208,151c-27.8,0-53.9,10.8-73.5,30.5-19.6,19.6-30.5,45.8-30.5,73.5v320c0,27.8,10.8,53.9,30.5,73.5,19.6,19.6,45.8,30.5,73.5,30.5h384c27.8,0,53.9-10.8,73.5-30.5,19.6-19.6,30.5-45.8,30.5-73.5V255c0-27.8-10.8-53.9-30.5-73.5-19.6-19.6-45.8-30.5-73.5-30.5H208Z"/>
</svg>