<?xml version="1.0" encoding="UTF-8"?>
<svg id="Capa_1" xmlns="http://www.w3.org/2000/svg" version="1.1" viewBox="0 0 800 800">
  <!-- Generator: Adobe Illustrator 29.1.0, SVG Export Plug-In . SVG Version: 2.1.0 Build 142)  -->
  <defs>
    <style>
      .st0 {
        fill: #e51910;
      }
    </style>
  </defs>
  <path class="st0" d="M775,175H25c-13.8,0-25,11.2-25,25v400c0,13.8,11.2,25,25,25h750c13.8,0,25-11.2,25-25V200c0-13.8-11.2-25-25-25ZM627.3,575H172.7c-10.7-62.8-59.9-112.1-122.7-122.7v-104.5c62.8-10.7,112.1-59.9,122.7-122.7h454.5c10.7,62.8,59.9,112.1,122.7,122.7v104.5c-62.8,10.7-112.1,59.9-122.7,122.7ZM750,296.5c-35-9.1-62.4-36.5-71.5-71.5h71.5v71.5ZM121.5,225c-9.1,35-36.5,62.4-71.5,71.5v-71.5h71.5ZM50,503.5c35,9.1,62.4,36.5,71.5,71.5H50v-71.5ZM678.5,575c9.1-35,36.5-62.4,71.5-71.5v71.5h-71.5Z"/>
  <path class="st0" d="M187.8,17.7c-5.7-3.3-12.6-4.2-19-2.5-6.4,1.7-11.9,5.8-15.3,11.5l-50,85.8c-6.9,12-2.8,27.3,9.2,34.3,12,6.9,27.3,2.8,34.3-9.3l37.5-64,126.8,73.2c12,6.9,27.3,2.8,34.2-9.2s2.8-27.3-9.2-34.2L187.8,17.7Z"/>
  <path class="st0" d="M612.2,782.3c3.8,2.2,8.1,3.5,12.5,3.5,2.2.4,4.3.4,6.5,0,6.4-1.7,11.9-5.8,15.3-11.5l50-85.8c6.9-12,2.8-27.3-9.3-34.2-12-6.9-27.3-2.8-34.2,9.2l-37,64-126.7-73.3c-12-6.9-27.3-2.8-34.2,9.3-6.9,12-2.8,27.3,9.2,34.2l148,84.5Z"/>
  <path class="st0" d="M400,250c-82.8,0-150,67.2-150,150s67.2,150,150,150,150-67.2,150-150-67.2-150-150-150ZM400,500c-55.2,0-100-44.8-100-100s44.8-100,100-100,100,44.8,100,100-44.8,100-100,100Z"/>
</svg>