<?xml version="1.0" encoding="UTF-8"?>
<svg id="Capa_1" xmlns="http://www.w3.org/2000/svg" version="1.1" xmlns:xlink="http://www.w3.org/1999/xlink" viewBox="0 0 800 800">
  <!-- Generator: Adobe Illustrator 29.1.0, SVG Export Plug-In . SVG Version: 2.1.0 Build 142)  -->
  <defs>
    <style>
      .st0 {
        fill: none;
      }

      .st1 {
        fill: #e51910;
      }

      .st2 {
        clip-path: url(#clippath);
      }
    </style>
    <clipPath id="clippath">
      <rect class="st0" x="3.1" y="38.5" width="794.9" height="721.6"/>
    </clipPath>
  </defs>
  <g class="st2">
    <g>
      <path class="st1" d="M170.8,664.1c8.3,4.2,11.1,10,9.3,19.4-1.5,9.7-1.6,19.6-.3,29.3,2,18.3,11.8,39.4,28.6,42.6,11.3,2.2,22.9,3.4,34.4,3.4,15.5.1,30.9-2.6,45.5-8.2,17.9-6.9,26.4-22.6,22.6-42-.9-4.5-1.8-9-2.8-13.8l-.6-2.8c6.3.6,12.5,1.3,18.6,1.9,16,2,32,3.2,48.1,3.5,16.2,0,31.8-1.5,48.4-3.1,5.9-.6,12-1.2,18-1.7-.1.9-.2,1.7-.3,2.6-.6,3.9-1,7.8-1,11.8.2,18.7,5.2,33.1,14.2,41.7,7.2,6.8,17,10.1,29,9.5,26-1.1,47.4-2.9,67.3-5.7,14.4-2,22.9-11.8,23.2-26.9.3-13.8-.3-27.8-.8-41.4-.2-4.2-.3-8.5-.5-12.7-.1-4.5-.5-8.9-.9-13.2,0-1.2-.2-2.3-.3-3.4,7-3,14-6,20.8-9,16.7-7.2,32.6-14,48.4-21.3,38.8-17.9,66.6-44.8,82.7-80,.8-1.7,1.7-3.3,2.7-5,.2-.3.3-.5.5-.8,1.3.2,2.6.4,3.9.5,4.3.6,8.4,1.2,12.6,1.4,6.8.4,13.5.2,19.8,0,21.6-.7,30.1-8.7,32.3-30.6,4.2-40.5-1.8-80.8-7.5-119.8l-.3-1.8c-3-20.6-11.5-27.7-33.4-28.3-9.3-.2-18.8-.2-27.9-.1-3.4,0-6.8,0-10.2,0-22.5-65.1-59.4-103.2-115.7-119.5,4.5-9.5,8.3-19.3,11.6-29.3,5.4-15.7,10.5-30.4,20.8-43.1,6.4-7.8,7.2-15.9,2.2-21.7-2.3-2.2-4.9-3.8-7.9-4.8-2.9-1-6.1-1.5-9.2-1.2-54.8,5.1-94.2,25.7-120.2,63-1.3,1.7-2.6,3.4-4,5l-.2.3c-2.9-.2-5.8-.5-8.6-.7-6.6-.7-13.3-1.1-20-1.1-18.9.4-39.5,1.3-63,2.7-82.7,4.9-153.3,26-216,64.5-57,35-90.8,81.9-103.4,143.3-1.4,7-4.2,11.1-8.7,13-.3-2.9-.5-5.8-.7-8.7-.3-9.3-1.6-18.6-3.9-27.7-1.9-7.1-6.3-13.2-12.4-17.3-6.1-4.1-13.4-5.8-20.7-4.9-6.9,1.1-13.3,4.5-18.1,9.6-4.8,5.1-7.7,11.8-8.2,18.8-.4,8.7.1,17.3,1.5,25.9.5,3.7.9,7.4,1.3,11.1,0,.7.3,1.3.8,1.8-5.1,6-10.8,13.9-3.6,23.4,6.8,9,16.9,7.2,25,5.8l2.3-.4c3.3-.8,6.6-1.1,9.9-1.1,6.5.4,13,1.3,19.9,2.2,2.2.3,4.4.6,6.7.9,0,.1,0,.2,0,.4-.1,2.3-.2,4.6-.5,6.8-2.8,24.4.5,49.2,9.6,72,1.6,4.1,3.1,8.3,4.6,12.4,2.3,6.8,4.9,13.4,7.9,19.9,5.1,11,11.5,21.5,19,31.1,15,18.3,33,38.8,57.8,51.2ZM586.1,180.3c-3.5,6.9-6.5,14-9,21.3-4.8,15-9.1,31.1-12.8,47.9-2.5,11.4,2.1,18.3,14,20.9,37.3,8.3,66,30.5,87.7,68,6.8,12.5,12.2,25.6,16.2,39.3,4.9,15.6,10.3,22.7,29,23.3,8.5.3,17.1.2,26.2.1,3.4,0,6.9,0,10.6,0l7.2,97.8c-3.4.8-6.7,1.5-9.9,2.2-9.1,2-17.8,3.8-26,6.5-6,1.9-13.5,6-16.7,11.9-27.9,50.9-76.1,74.7-119.4,91.2l-5.6,2.1c-11,4.2-22.3,8.5-33.3,13-10.8,4.4-11.5,15.9-11.8,21.5-.8,13.9-1.2,28.1-1.5,41.7-.1,5.1-.2,10.2-.4,15.3,0,1.9,0,3.9,0,6.4v1.9l-43.8,4.6c-.6-3.6-1.2-7.2-1.8-10.7-1.7-9-2.9-18-3.5-27.1-.6-12.2-4.5-21-11.7-26.1-7.6-5.5-18.7-6.4-32-2.6-26.7,7.6-53,7.7-77.6,7.3-7.4-.1-14.9-1-22.2-1.9-5.3-.6-10.8-1.3-16.2-1.6-6.7-.5-13.5-.2-20.1.8-16.7,2.9-25.3,11.5-28.7,29-1.1,5.6-1.7,11.3-2.3,16.6-.3,3.4-.5,6.8-.7,10.7,0,1.1-.1,2.2-.2,3.4l-46.8,3.2c-.4-4.4-.9-8.7-1.4-12.9-1.5-11.2-2.3-22.5-2.5-33.9,0-10.7-1.6-21.9-13.2-31.1l-6.3-5c-14.4-11-28.2-22.8-41.2-35.3-15.9-15.4-28.3-34-36.4-54.7-8-20.6-11.5-42.8-10.2-64.9,1.6-38.2,9.3-71,23.2-100.4,11.2-23.4,29.1-43.8,54.9-62.3,61.3-44.1,134-67.1,222.3-70.2,10.7-.4,21.5-.6,32.1-.7,16-.3,32.5-.5,48.7-1.5,7.7-.5,15-9.1,17-11.7,20-25.7,38.5-41.4,59.9-50.9,4.9-2.2,10.1-4.2,16-6.4l2.9-1.1c-.8,1.8-1.6,3.5-2.4,5.2Z"/>
      <path class="st1" d="M327.1,39.5c-27.6,2.4-50.8,18.7-65.4,45.9-9.9,18.4-12.8,36.1-8.7,52.8,8.3,33.3,34.8,50.3,78.9,50.5,1.1,0,2.2,0,3.3,0,26.7,0,50.6-16.6,64.6-45,12.6-25.6,13.1-46.7,1.6-64.5-18.2-28.2-44.6-42.3-74.4-39.7ZM361,124.9c-8.7,16.2-20.9,25.4-32.6,24.5h-.2c-16.5,0-28.6-4.5-35.1-12.9-5.5-7.2-6.8-17.2-3.7-29.1,1.5-6.5,4.1-12.7,7.5-18.4,2.5-4.1,6.1-7.5,10.3-9.9,4.2-2.4,9-3.6,13.8-3.6,4.3,0,8.6,1,12.5,2.8,7.5,3.2,14.6,7.4,21,12.5,13,10.5,14.5,18.8,6.3,34Z"/>
      <path class="st1" d="M388.7,272c-53.7,4.2-100.1,16.7-141.9,38.3-7.6,4.2-14.8,9.1-21.4,14.8-7.9,6.6-9.8,15.8-4.5,22.7,1.1,1.6,2.7,2.9,4.4,3.8,1.8.9,3.7,1.3,5.7,1.3,4-.2,7.9-1.3,11.4-3.2,33.3-16.5,71.4-27.7,116.5-34.3,13.3-1.9,26.7-4.4,40-7.2,10.3-2.2,16.1-8.6,16.3-18.1h0c0-2.4-.4-4.8-1.3-7-.9-2.2-2.3-4.1-4-5.7-4.6-4.3-12-6.2-21.2-5.5Z"/>
      <path class="st1" d="M539.5,347c-.3,3.9.3,7.8,1.6,11.5,1.3,3.7,3.3,7.1,5.9,10,2.6,2.9,5.8,5.2,9.3,6.8,3.5,1.6,7.4,2.5,11.3,2.7.4,0,.9,0,1.3,0,7.6,0,14.9-3,20.3-8.3,3-2.8,5.3-6.3,6.9-10,1.6-3.8,2.4-7.8,2.4-11.9,0-16-11.8-28.7-26.6-28.9-18.7-.2-31.8,11-32.4,28.2Z"/>
    </g>
  </g>
</svg>